<svg version="1.1" viewBox="0.0 0.0 900.0 200.0" fill="none" stroke="none" stroke-linecap="square" stroke-miterlimit="10" xmlns:xlink="http://www.w3.org/1999/xlink" xmlns="http://www.w3.org/2000/svg"><clipPath id="p.0"><path d="m0 0l900.0 0l0 200.0l-900.0 0l0 -200.0z" clip-rule="nonzero"/></clipPath><g clip-path="url(#p.0)"><path fill="#000000" fill-opacity="0.0" d="m0 0l900.0 0l0 200.0l-900.0 0z" fill-rule="evenodd"/><path fill="#000000" fill-opacity="0.0" d="m0 0.002624672l900.0 0l0 200.0l-900.0 0z" fill-rule="evenodd"/><path fill="#f8f8f2" d="m19.972656 140.32263l21.375 0q5.3125 0 9.984375 -1.3125q4.671875 -1.3125 8.5625 -3.78125q3.328125 -2.078125 6.109375 -5.15625q2.796875 -3.09375 4.875 -6.765625q2.1875 -4.09375 3.390625 -9.015625q1.203125 -4.921875 1.203125 -10.453125l0 -6.5625q0 -5.734375 -1.28125 -10.8125q-1.28125 -5.09375 -3.640625 -9.3125q-2.015625 -3.4375 -4.734375 -6.359375q-2.703125 -2.9375 -6.140625 -4.953125q-3.9375 -2.46875 -8.75 -3.796875q-4.8125 -1.34375 -10.34375 -1.34375l-20.609375 0l0 79.625zm15.46875 -67.15625l5.140625 0q2.796875 0 5.171875 0.625q2.375 0.625 4.34375 1.78125q2.578125 1.53125 4.515625 3.9375q1.9375 2.40625 3.140625 5.46875q0.984375 2.5625 1.5 5.65625q0.53125 3.09375 0.53125 6.53125l0 6.671875q0 3.671875 -0.53125 6.8125q-0.515625 3.140625 -1.5 5.71875q-1.203125 2.953125 -2.875 5.171875q-1.65625 2.203125 -3.734375 3.625q-2.03125 1.375 -4.5 2.09375q-2.453125 0.703125 -5.296875 0.703125l-5.90625 0l0 -54.796875zm61.960938 91.0625q4.59375 0 7.953125 -1.53125q3.375 -1.53125 5.71875 -3.78125q2.359375 -2.234375 3.90625 -4.859375q1.5625 -2.625 2.546875 -4.875l30.03125 -68.03125l-16.796875 0l-13.5 34.78125l-2.25 5.90625l-1.640625 -6.015625l-13.5625 -34.671875l-16.625 0l25.046875 56.65625l-3.5 6.515625q-0.65625 1.203125 -1.125 1.859375q-0.453125 0.65625 -1.4375 1.96875q-0.984375 1.3125 -2.390625 2.421875q-1.390625 1.125 -3.1875 1.125q-0.875 0 -2.328125 -0.078125q-1.453125 -0.078125 -2.375 -0.078125l-1.859375 11.59375q1.96875 0.546875 3.578125 0.8125q1.609375 0.28125 3.796875 0.28125zm61.039062 -107.90625l0 12.40625l17.71875 0l0 59.234375l-17.71875 0l0 12.359375l50.03125 0l0 -12.359375l-16.953125 0l0 -71.640625l-33.078125 0zm101.00781 84.0l15.421875 0l0 -0.9375q-1.15625 -2.234375 -1.765625 -5.34375q-0.59375 -3.125 -0.59375 -7.890625l0 -25.375q0 -5.140625 -1.921875 -9.046875q-1.90625 -3.90625 -5.296875 -6.484375q-3.390625 -2.5625 -8.015625 -3.875q-4.609375 -1.3125 -9.96875 -1.3125q-5.96875 0 -10.59375 1.5q-4.609375 1.5 -7.78125 4.078125q-3.234375 2.5625 -4.90625 5.953125q-1.65625 3.390625 -1.65625 7.171875l15.203125 0q0 -1.59375 0.453125 -2.90625q0.46875 -1.3125 1.453125 -2.234375q1.09375 -1.046875 2.84375 -1.609375q1.75 -0.578125 4.15625 -0.578125q2.734375 0 4.78125 0.6875q2.0625 0.671875 3.421875 1.9375q1.3125 1.203125 1.96875 2.875q0.65625 1.65625 0.65625 3.734375l0 3.5l-8.46875 0q-6.5625 0 -11.625 1.1875q-5.0625 1.171875 -8.5 3.40625q-3.828125 2.46875 -5.75 6.265625q-1.90625 3.796875 -1.90625 8.71875q0 3.828125 1.53125 7.09375q1.53125 3.25 4.265625 5.59375q2.734375 2.359375 6.53125 3.671875q3.796875 1.3125 8.34375 1.3125q2.78125 0 5.1875 -0.515625q2.40625 -0.515625 4.4375 -1.453125q1.96875 -0.875 3.609375 -2.078125q1.640625 -1.203125 2.890625 -2.578125q0.28125 1.59375 0.65625 3.015625q0.390625 1.421875 0.9375 2.515625zm-14.5 -10.671875q-2.125 0 -3.75 -0.515625q-1.609375 -0.515625 -2.703125 -1.390625q-1.09375 -0.9375 -1.671875 -2.265625q-0.5625 -1.34375 -0.5625 -2.9375q0 -2.015625 0.765625 -3.734375q0.765625 -1.734375 2.34375 -2.984375q1.59375 -1.203125 4.109375 -1.890625q2.515625 -0.6875 6.0625 -0.6875l7.765625 0l0 10.171875q-0.65625 1.15625 -1.8125 2.28125q-1.140625 1.109375 -2.71875 1.984375q-1.59375 0.875 -3.5625 1.421875q-1.96875 0.546875 -4.265625 0.546875zm44.742188 10.671875l15.25 0l0 -42.0625q0.765625 -1.203125 1.6875 -2.1875q0.9375 -0.984375 2.09375 -1.6875q1.421875 -0.984375 3.25 -1.46875q1.828125 -0.5 4.015625 -0.5q2.625 0 4.703125 0.515625q2.078125 0.515625 3.5625 1.828125q1.46875 1.3125 2.265625 3.59375q0.796875 2.265625 0.796875 5.765625l0 36.203125l15.203125 0l0 -36.421875q0 -6.453125 -1.515625 -10.96875q-1.5 -4.515625 -4.171875 -7.40625q-2.734375 -2.84375 -6.453125 -4.15625q-3.71875 -1.3125 -8.203125 -1.3125q-3.5 0 -6.625 0.984375q-3.109375 0.984375 -5.734375 2.84375q-1.53125 1.09375 -2.90625 2.46875q-1.359375 1.359375 -2.515625 3.0l-0.921875 -8.203125l-13.78125 0l0 59.171875zm189.15625 -24.9375l-15.359375 0q-0.21875 3.609375 -1.203125 6.1875q-0.984375 2.5625 -2.6875 4.203125q-1.6875 1.640625 -4.09375 2.40625q-2.40625 0.765625 -5.421875 0.765625q-2.234375 0 -4.078125 -0.515625q-1.828125 -0.53125 -3.296875 -1.625q-1.375 -0.984375 -2.4375 -2.453125q-1.0625 -1.484375 -1.828125 -3.390625q-1.09375 -2.796875 -1.625 -6.53125q-0.515625 -3.75 -0.515625 -8.515625l0 -10.828125q0 -3.5 0.328125 -6.53125q0.328125 -3.03125 1.046875 -5.546875q0.921875 -3.234375 2.484375 -5.65625q1.5625 -2.4375 3.796875 -3.75q1.3125 -0.765625 2.875 -1.140625q1.5625 -0.390625 3.359375 -0.390625q3.390625 0 5.828125 0.90625q2.4375 0.890625 4.078125 2.640625q1.578125 1.8125 2.421875 4.5q0.859375 2.671875 1.078125 6.21875l15.3125 0q-0.546875 -6.234375 -2.625 -11.203125q-2.078125 -4.984375 -5.6875 -8.421875q-3.609375 -3.453125 -8.734375 -5.3125q-5.109375 -1.859375 -11.671875 -1.859375q-4.421875 0 -8.28125 1.125q-3.859375 1.125 -7.078125 3.203125q-3.609375 2.453125 -6.453125 6.015625q-2.84375 3.546875 -4.59375 8.09375q-1.53125 3.71875 -2.296875 8.0625q-0.765625 4.34375 -0.765625 9.15625l0 10.71875q0 5.140625 0.84375 9.734375q0.84375 4.59375 2.4375 8.421875q1.640625 3.828125 4.015625 7.0q2.375 3.171875 5.4375 5.421875q3.34375 2.40625 7.515625 3.703125q4.1875 1.28125 9.109375 1.28125q6.234375 0 11.375 -1.828125q5.140625 -1.84375 8.859375 -5.234375q3.71875 -3.390625 5.9375 -8.203125q2.21875 -4.8125 2.59375 -10.828125zm10.3984375 -5.203125l0 1.15625q0 6.5 1.859375 12.0q1.859375 5.5 5.46875 9.546875q3.546875 4.046875 8.765625 6.328125q5.234375 2.265625 11.90625 2.265625q6.609375 0 11.796875 -2.265625q5.203125 -2.28125 8.765625 -6.328125q3.546875 -4.046875 5.40625 -9.546875q1.859375 -5.5 1.859375 -12.0l0 -1.15625q0 -6.453125 -1.859375 -11.9375q-1.859375 -5.5 -5.40625 -9.546875q-3.609375 -4.046875 -8.8125 -6.34375q-5.1875 -2.296875 -11.859375 -2.296875q-6.671875 0 -11.84375 2.296875q-5.171875 2.296875 -8.71875 6.34375q-3.609375 4.046875 -5.46875 9.546875q-1.859375 5.484375 -1.859375 11.9375zm15.203125 1.15625l0 -1.15625q0 -3.609375 0.703125 -6.828125q0.71875 -3.234375 2.25 -5.6875q1.53125 -2.46875 3.9375 -3.890625q2.40625 -1.421875 5.796875 -1.421875q3.4375 0 5.84375 1.421875q2.40625 1.421875 3.9375 3.890625q1.484375 2.453125 2.1875 5.6875q0.71875 3.21875 0.71875 6.828125l0 1.15625q0 3.71875 -0.71875 6.96875q-0.703125 3.25 -2.1875 5.65625q-1.53125 2.46875 -3.9375 3.890625q-2.40625 1.421875 -5.734375 1.421875q-3.453125 0 -5.890625 -1.421875q-2.421875 -1.421875 -3.953125 -3.890625q-1.53125 -2.40625 -2.25 -5.65625q-0.703125 -3.25 -0.703125 -6.96875zm54.085938 28.984375l15.25 0l0 -42.0625q0.765625 -1.203125 1.6875 -2.1875q0.9375 -0.984375 2.09375 -1.6875q1.421875 -0.984375 3.25 -1.46875q1.828125 -0.5 4.015625 -0.5q2.625 0 4.703125 0.515625q2.078125 0.515625 3.5625 1.828125q1.46875 1.3125 2.265625 3.59375q0.796875 2.265625 0.796875 5.765625l0 36.203125l15.203125 0l0 -36.421875q0 -6.453125 -1.515625 -10.96875q-1.5 -4.515625 -4.171875 -7.40625q-2.734375 -2.84375 -6.453125 -4.15625q-3.71875 -1.3125 -8.203125 -1.3125q-3.5 0 -6.625 0.984375q-3.109375 0.984375 -5.734375 2.84375q-1.53125 1.09375 -2.90625 2.46875q-1.359375 1.359375 -2.515625 3.0l-0.921875 -8.203125l-13.78125 0l0 59.171875zm89.46094 -24.453125l16.796875 24.453125l18.640625 0l-25.421875 -34.515625l22.3125 -24.65625l-18.265625 0l-16.359375 17.9375l-4.59375 5.25l0 -48.015625l-15.203125 0l0 84.0l15.203125 0l0 -18.046875l6.890625 -6.40625zm48.132812 -59.546875l0 12.40625l17.71875 0l0 59.234375l-17.71875 0l0 12.359375l50.03125 0l0 -12.359375l-16.953125 0l0 -71.640625l-33.078125 0zm68.08594 24.828125l0 12.40625l16.84375 0l0 34.40625l-16.84375 0l0 12.359375l48.234375 0l0 -12.359375l-16.03125 0l0 -46.8125l-32.203125 0zm15.75 -15.15625q0 1.75 0.625 3.265625q0.625 1.5 1.78125 2.53125q1.140625 1.09375 2.75 1.703125q1.625 0.59375 3.59375 0.59375q4.046875 0 6.421875 -2.265625q2.375 -2.265625 2.375 -5.828125q0 -3.546875 -2.375 -5.8125q-2.375 -2.28125 -6.421875 -2.28125q-1.96875 0 -3.59375 0.609375q-1.609375 0.59375 -2.75 1.640625q-1.15625 1.09375 -1.78125 2.59375q-0.625 1.5 -0.625 3.25zm47.414062 74.328125l15.25 0l0 -42.0625q0.765625 -1.203125 1.6875 -2.1875q0.9375 -0.984375 2.09375 -1.6875q1.421875 -0.984375 3.25 -1.46875q1.828125 -0.5 4.015625 -0.5q2.625 0 4.703125 0.515625q2.078125 0.515625 3.5625 1.828125q1.46875 1.3125 2.265625 3.59375q0.796875 2.265625 0.796875 5.765625l0 36.203125l15.203125 0l0 -36.421875q0 -6.453125 -1.515625 -10.96875q-1.5 -4.515625 -4.171875 -7.40625q-2.734375 -2.84375 -6.453125 -4.15625q-3.71875 -1.3125 -8.203125 -1.3125q-3.5 0 -6.625 0.984375q-3.109375 0.984375 -5.734375 2.84375q-1.53125 1.09375 -2.90625 2.46875q-1.359375 1.359375 -2.515625 3.0l-0.921875 -8.203125l-13.78125 0l0 59.171875z" fill-rule="nonzero"/></g></svg>